HIERARCHY
ROOT hip
{
  OFFSET 0 0 0
  CHANNELS 6 Xposition Yposition Zposition Zrotation Yrotation Xrotation
  JOINT abdomen
  {
    OFFSET 0 20.6881 -0.73152
    CHANNELS 3 Zrotation Xrotation Yrotation
    JOINT chest
    {
      OFFSET 0 11.7043 -0.48768
      CHANNELS 3 Zrotation Xrotation Yrotation
      JOINT neck
      {
        OFFSET 0 22.1894 -2.19456
        CHANNELS 3 Zrotation Xrotation Yrotation
        JOINT head
        {
          OFFSET -0.24384 7.07133 1.2192
          CHANNELS 3 Zrotation Xrotation Yrotation
          JOINT leftEye
          {
            OFFSET 4.14528 8.04674 8.04672
            CHANNELS 3 Zrotation Xrotation Yrotation
            End Site
            {
              OFFSET 1 0 0
            }
          }
          JOINT rightEye
          {
            OFFSET -3.6576 8.04674 8.04672
            CHANNELS 3 Zrotation Xrotation Yrotation
            End Site
            {
              OFFSET 1 0 0
            }
          }
        }
      }
      JOINT rCollar
      {
        OFFSET -2.68224 19.2634 -4.8768
        CHANNELS 3 Zrotation Xrotation Yrotation
        JOINT rShldr
        {
          OFFSET -8.77824 -1.95073 1.46304
          CHANNELS 3 Zrotation Xrotation Yrotation
          JOINT rForeArm
          {
            OFFSET -28.1742 -1.7115 0.48768
            CHANNELS 3 Zrotation Xrotation Yrotation
            JOINT rHand
            {
              OFFSET -22.5879 0.773209 7.07136
              CHANNELS 3 Zrotation Xrotation Yrotation
              JOINT rThumb1
              {
                OFFSET -1.2192 -0.487915 3.41376
                CHANNELS 3 Zrotation Xrotation Yrotation
                JOINT rThumb2
                {
                  OFFSET -3.37035 -0.52449 3.41376
                  CHANNELS 3 Zrotation Xrotation Yrotation
                  End Site
                  {
                    OFFSET -1.78271 -1.18214 1.43049
                  }
                }
              }
              JOINT rIndex1
              {
                OFFSET -7.75947 0.938293 5.60832
                CHANNELS 3 Zrotation Xrotation Yrotation
                JOINT rIndex2
                {
                  OFFSET -2.54057 -0.884171 1.56538
                  CHANNELS 3 Zrotation Xrotation Yrotation
                  End Site
                  {
                    OFFSET -1.62519 -0.234802 1.16502
                  }
                }
              }
              JOINT rMid1
              {
                OFFSET -8.24714 1.18213 3.41376
                CHANNELS 3 Zrotation Xrotation Yrotation
                JOINT rMid2
                {
                  OFFSET -3.10165 -0.590103 1.0647
                  CHANNELS 3 Zrotation Xrotation Yrotation
                  End Site
                  {
                    OFFSET -2.48547 -0.328903 0.83742
                  }
                }
              }
              JOINT rRing1
              {
                OFFSET -8.82822 0.546677 1.51678
                CHANNELS 3 Zrotation Xrotation Yrotation
                JOINT rRing2
                {
                  OFFSET -2.60934 -0.819778 -0.0198488
                  CHANNELS 3 Zrotation Xrotation Yrotation
                  End Site
                  {
                    OFFSET -2.33842 -0.294052 0.168128
                  }
                }
              }
              JOINT rPinky1
              {
                OFFSET -8.27202 -0.0477905 -0.4584
                CHANNELS 3 Zrotation Xrotation Yrotation
                JOINT rPinky2
                {
                  OFFSET -1.82734 -0.647385 -0.700984
                  CHANNELS 3 Zrotation Xrotation Yrotation
                  End Site
                  {
                    OFFSET -1.69225 -0.51767 -0.607171
                  }
                }
              }
            }
          }
        }
      }
      JOINT lCollar
      {
        OFFSET 2.68224 19.2634 -4.8768
        CHANNELS 3 Zrotation Xrotation Yrotation
        JOINT lShldr
        {
          OFFSET 8.77824 -1.95073 1.46304
          CHANNELS 3 Zrotation Xrotation Yrotation
          JOINT lForeArm
          {
            OFFSET 28.1742 -1.7115 0.48768
            CHANNELS 3 Zrotation Xrotation Yrotation
            JOINT lHand
            {
              OFFSET 22.5879 0.773209 7.07136
              CHANNELS 3 Zrotation Xrotation Yrotation
              JOINT lThumb1
              {
                OFFSET 1.2192 -0.487915 3.41376
                CHANNELS 3 Zrotation Xrotation Yrotation
                JOINT lThumb2
                {
                  OFFSET 3.37035 -0.52449 3.41376
                  CHANNELS 3 Zrotation Xrotation Yrotation
                  End Site
                  {
                    OFFSET 1.78271 -1.18214 1.43049
                  }
                }
              }
              JOINT lIndex1
              {
                OFFSET 7.75947 0.938293 5.60832
                CHANNELS 3 Zrotation Xrotation Yrotation
                JOINT lIndex2
                {
                  OFFSET 2.54057 -0.884171 1.56538
                  CHANNELS 3 Zrotation Xrotation Yrotation
                  End Site
                  {
                    OFFSET 1.62519 -0.234802 1.16502
                  }
                }
              }
              JOINT lMid1
              {
                OFFSET 8.24714 1.18213 3.41376
                CHANNELS 3 Zrotation Xrotation Yrotation
                JOINT lMid2
                {
                  OFFSET 3.10165 -0.590103 1.0647
                  CHANNELS 3 Zrotation Xrotation Yrotation
                  End Site
                  {
                    OFFSET 2.48547 -0.328903 0.83742
                  }
                }
              }
              JOINT lRing1
              {
                OFFSET 8.82822 0.546677 1.51678
                CHANNELS 3 Zrotation Xrotation Yrotation
                JOINT lRing2
                {
                  OFFSET 2.60934 -0.819778 -0.0198488
                  CHANNELS 3 Zrotation Xrotation Yrotation
                  End Site
                  {
                    OFFSET 2.33842 -0.294052 0.168128
                  }
                }
              }
              JOINT lPinky1
              {
                OFFSET 8.27202 -0.0477905 -0.4584
                CHANNELS 3 Zrotation Xrotation Yrotation
                JOINT lPinky2
                {
                  OFFSET 1.82734 -0.647385 -0.700984
                  CHANNELS 3 Zrotation Xrotation Yrotation
                  End Site
                  {
                    OFFSET 1.69225 -0.51767 -0.607171
                  }
                }
              }
            }
          }
        }
      }
    }
  }
  JOINT rButtock
  {
    OFFSET -8.77824 4.35084 1.2192
    CHANNELS 3 Zrotation Xrotation Yrotation
    JOINT rThigh
    {
      OFFSET 0 -1.70687 -2.19456
      CHANNELS 3 Zrotation Xrotation Yrotation
      JOINT rShin
      {
        OFFSET 0 -36.8199 0.73152
        CHANNELS 3 Zrotation Xrotation Yrotation
        JOINT rFoot
        {
          OFFSET 0.73152 -45.1104 -5.12064
          CHANNELS 3 Zrotation Xrotation Yrotation
          End Site
          {
            OFFSET -1.1221 -3.69964 12.103
          }
        }
      }
    }
  }
  JOINT lButtock
  {
    OFFSET 8.77824 4.35084 1.2192
    CHANNELS 3 Zrotation Xrotation Yrotation
    JOINT lThigh
    {
      OFFSET 0 -1.70687 -2.19456
      CHANNELS 3 Zrotation Xrotation Yrotation
      JOINT lShin
      {
        OFFSET 0 -36.8199 0.73152
        CHANNELS 3 Zrotation Xrotation Yrotation
        JOINT lFoot
        {
          OFFSET -0.73152 -45.1104 -5.12064
          CHANNELS 3 Zrotation Xrotation Yrotation
          End Site
          {
            OFFSET 1.1221 -3.69964 12.103
          }
        }
      }
    }
  }
}
MOTION
Frames:	4
Frame Time:	0.03333
0.0 0.0 0.0 0.0 0.0 0.0 0.0 0.0 0.0 0.0 0.0 0.0 0.0 0.0 0.0 0.0 0.0 0.0 0.0 0.0 0.0 0.0 0.0 0.0 0.0 0.0 0.0 0.0 0.0 0.0 0.0 0.0 0.0 0.0 0.0 0.0 0.0 0.0 0.0 0.0 0.0 0.0 0.0 0.0 0.0 0.0 0.0 0.0 0.0 0.0 0.0 0.0 0.0 0.0 0.0 0.0 0.0 0.0 0.0 0.0 0.0 0.0 0.0 0.0 0.0 0.0 0.0 0.0 0.0 0.0 0.0 0.0 0.0 0.0 0.0 0.0 0.0 0.0 0.0 0.0 0.0 0.0 0.0 0.0 0.0 0.0 0.0 0.0 0.0 0.0 0.0 0.0 0.0 0.0 0.0 0.0 0.0 0.0 0.0 0.0 0.0 0.0 0.0 0.0 0.0 0.0 0.0 0.0 0.0 0.0 0.0 0.0 0.0 0.0 0.0 0.0 0.0 0.0 0.0 0.0 0.0 0.0 0.0 0.0 0.0 0.0 0.0 0.0 0.0 0.0 0.0 0.0
1.6738 1.9441 1.909 89.05031 -33.751877 -178.791502 71.022242 -7.167516 87.543069 178.619868 -7.545085 -71.123411 95.536296 0.231462 -90.064556 98.072826 14.480486 -83.830962 -124.331773 1.203023 2.278231 0.454737 -0.086081 -21.438192 -176.153114 20.101509 76.913094 -56.813884 58.16013 -50.491497 -58.469123 38.69169 -101.43504 139.148862 -3.951421 -149.506504 94.356375 79.534411 -20.846249 124.947266 44.008492 -110.438747 -9.661069 -3.685386 163.3893 179.180653 71.452545 18.057151 -86.616772 -28.026613 125.474473 -94.989182 3.528551 167.363266 100.022233 1.131478 -137.369385 34.354282 6.841131 -165.617428 74.954456 -43.455214 -23.450013 140.808563 20.307487 97.178124 112.389605 -46.310636 -23.891695 86.398886 25.280117 26.39675 63.779601 -85.716851 -39.390491 68.789558 67.534459 -158.042349 -10.706402 -13.264 -60.209007 -84.401368 -19.696491 146.019807 -165.903663 -18.092541 165.857646 -23.459576 15.416601 -154.222494 33.149346 57.453104 71.835392 102.627389 -18.769242 94.859832 -99.073104 -29.566939 -22.268289 60.49519 -39.124324 -48.029265 -51.25614 26.283203 150.667463 -135.867484 31.919329 -133.149921 4.119932 -75.921301 -85.573382 -138.445841 35.469288 123.209723 -105.858053 -47.063301 160.161265 -66.55419 30.936658 124.481324 -38.08329 -27.30405 -0.0 149.012081 -18.380523 -180.0 -136.501435 -37.634503 55.922707 -69.39722 -16.575743 -113.042744
3.1973000000000003 1.8598 2.7694 82.77752 -32.362493 -170.853733 67.779864 -9.357539 -64.990849 176.764615 8.404934 129.601959 117.752059 1.159549 96.368691 -90.496674 -9.658668 118.76556 -121.378351 0.531466 0.946628 4.586215 -1.024285 -25.167281 -121.904778 2.333317 55.146805 154.673003 62.795656 94.761903 -174.972909 18.115741 -73.163334 40.112972 -19.782901 87.21778 -18.520394 74.710256 92.71664 146.064082 58.240471 -100.597964 141.900169 43.38847 -29.246818 -40.760582 17.842851 171.083263 33.10357 42.598712 55.328982 179.265961 -53.382832 -144.224596 -105.984189 25.622978 -45.390624 41.58688 52.646028 140.634855 -43.509232 50.680915 -162.76654 142.089676 -54.771431 -27.234341 -52.665534 -22.283481 -137.271227 -74.267013 23.973672 -101.586897 101.161949 80.89474 146.985536 61.855407 59.7231 -150.586904 0.654322 -24.887313 -56.425249 -32.649638 26.151768 -173.830722 107.44316 -26.216634 97.324459 -63.598681 -29.982869 -175.411309 154.331987 -36.614266 101.120297 156.441923 -0.621555 -49.640451 -137.354455 -67.721811 -43.89714 -50.106413 -0.720524 -96.75049 -110.802694 -49.991704 86.001689 -32.003644 51.673322 139.168342 73.6445 6.725747 180.0 27.543282 -38.197612 40.143717 92.806233 7.224535 -130.588619 30.453147 -0.637405 -95.539702 -44.329343 -31.324493 -0.0 146.532343 -18.38315 -12.475604 144.379924 39.055223 -76.082843 -87.260403 22.098942 -121.219656
4.9776 1.7628000000000001 3.6485999999999996 79.292802 -28.378204 -167.819213 58.372256 -7.312745 93.845576 -179.664865 -3.310268 -74.752903 118.885993 4.917789 102.249452 -90.514721 -5.749493 119.222843 -116.442768 0.312375 0.504227 8.449457 -2.061879 -27.382173 -121.082698 1.974468 56.51553 126.586041 57.30331 119.07861 -25.399082 -10.754933 -154.965573 152.670797 9.447182 -145.065059 -110.686992 -88.051977 85.10519 63.12403 -3.207995 138.073887 128.965773 69.807678 -7.684357 145.588906 15.142338 -42.647215 66.821798 29.122996 30.917214 119.502633 -3.795792 155.725932 120.238984 -12.451874 -110.508002 103.597081 -70.836449 -98.614636 5.09566 -58.773248 -97.533112 15.459163 0.588938 156.674067 -52.344222 -24.533838 -134.700096 -54.7557 18.301963 -113.39164 -165.229673 -69.908548 -17.721049 -161.895605 -73.094713 110.499362 154.093911 10.384804 -25.265833 -155.923834 14.341184 92.890153 -61.721644 58.277191 136.322862 -71.571062 -40.413314 136.339219 170.629222 -32.945208 113.144478 92.003647 -27.512125 -69.598004 -76.46438 2.234068 -36.413401 95.202605 24.916608 -1.668442 -44.051707 35.59215 143.326976 114.496451 -17.698307 -64.637629 140.814579 -37.415416 126.699577 128.902051 14.552824 96.173835 89.480685 -41.255573 -49.961563 -111.120186 38.12024 153.098757 6.766951 17.504738 80.741456 87.835852 -69.614397 -2.570587 167.492841 41.288996 -38.185908 84.02968 -7.596921 104.085018
